<?xml version="1.0" encoding="UTF-8" standalone="no"?>
<!DOCTYPE svg PUBLIC "-//W3C//DTD SVG 1.1//EN" "http://www.w3.org/Graphics/SVG/1.1/DTD/svg11.dtd">
<svg width="100%" height="100%" viewBox="0 0 500 500" version="1.1" xmlns="http://www.w3.org/2000/svg" xmlns:xlink="http://www.w3.org/1999/xlink" xml:space="preserve" xmlns:serif="http://www.serif.com/" style="fill-rule:evenodd;clip-rule:evenodd;stroke-linecap:round;stroke-linejoin:round;stroke-miterlimit:1.5;">
    <path d="M159.576,287.999C158.42,288.831 125.489,263.223 110.455,279.69C106.65,283.857 102.92,288.189 100.06,293.054C95.644,300.566 106.821,310.126 97.833,316.07C84.785,324.699 64.45,318.017 52.718,332.6C50.79,334.996 48.751,342.977 48.155,345.994C47.544,349.086 48.095,368.775 50.316,371.012C62.258,383.041 75.342,377.013 81.675,384.773C84.993,388.838 76.766,391.481 74.817,394.028C72.756,396.72 71.082,399.774 70.011,402.991C63.903,421.341 67.241,441.915 79.272,457.137C81.553,460.023 84.173,462.866 87.439,464.562C90.456,466.128 97.322,463.883 100.06,463.077C111.022,459.851 118.465,458.086 128.274,451.94C132.484,449.302 136.168,443.582 139.353,439.994C139.936,439.337 141.91,437.559 143.123,438.576C156.264,449.592 168.916,472.259 188.976,471.128C200.257,470.491 210.449,462.467 217.369,454.167C219.767,451.291 222.215,441.564 228.506,444.515C239.844,449.834 244.326,462.731 252.411,471.235C257.47,476.556 265.488,481.037 273.053,478.668C276.65,477.542 280.099,475.945 283.447,474.214C287.293,472.225 291.111,470.116 294.584,467.531C305.774,459.204 311.625,445.584 315.373,432.636C316.27,429.536 316.628,426.17 316.116,422.984C315.892,421.591 314.26,420.859 313.312,419.815C312.589,419.02 310.663,417.443 311.661,417.044C313.642,416.252 316.486,417.467 318.343,417.787C324.518,418.848 330.681,420.029 336.904,420.757C356.391,423.035 376.952,425.897 396.166,419.866C403.266,417.638 412.164,413.425 415.075,405.777C418.993,395.481 416.697,382.919 407.438,376.209C404.832,374.321 391.723,371.218 396.913,364.35C407.054,350.93 424.735,347.232 434.984,334.246C439.294,328.784 440.386,324.728 441.601,317.422C442.363,312.842 442.871,301.25 441.336,296.484C440.052,292.498 434.675,287.819 431.692,285.298C424.588,279.295 416.674,271.292 406.469,271.399C396.93,271.499 389.598,280.492 379.718,278.166C375.974,277.283 372.361,275.768 368.983,273.926C351.638,264.465 331.928,246.283 309.917,251.142C299.36,253.472 290.761,261.053 284.196,269.268C281.732,272.351 280.041,283.291 273.053,280.432C254.696,272.921 239.823,251.213 218.184,252.814C201.795,254.027 187.72,269.853 175.791,278.205C170.618,281.826 164.701,284.309 159.576,287.999Z" style="fill:rgb(230,230,230);stroke:rgb(173,170,169);stroke-width:1px;"/>
    <path d="M203.371,253.906C206.769,254.84 277.232,251.856 279.568,249.395C280.635,248.271 276.695,223.691 289.571,215.232C291.748,213.802 294.29,226.093 294.882,231.22C295.084,232.963 296.355,251.468 295.34,252.661C277.606,273.506 299.502,287.282 300.833,286.617C311.932,281.067 317.523,255.952 321.117,245.171C321.461,244.136 322.286,235.625 321.979,230.957C321.736,227.282 321.411,224.464 320.171,220.743C317.598,213.025 315.111,202.393 312.927,196.971C308.198,185.236 292.958,179.617 282.81,177.559C278.421,176.669 269.059,175.304 265.506,174.865C265.237,174.831 265.195,159.949 265.195,158.172L225.102,155.944C225.102,161.033 225.844,165.882 225.844,170.051C225.844,170.299 226.019,170.619 225.844,170.794C224.664,171.973 222.001,172.346 219.905,172.278C213.115,172.061 190.499,180.153 182.782,187.87C179.514,191.138 178.846,193.227 175.258,196.815C172.308,199.766 166.849,208.974 164.023,213.347C160.045,219.502 155.304,232.08 151.508,239.672C146.354,249.981 144.109,257.542 150.023,269.371C154.494,278.312 158.685,283.424 164.963,290.329C167.199,292.789 198.05,277.865 183.099,265.512C169.295,254.106 183.068,240.162 187.035,235.415C188.375,233.811 196.554,223.739 200.018,219.751C202.006,217.461 203.038,253.815 203.371,253.906Z" style="fill:rgb(245,191,173);"/>
    <path d="M246.312,98.299C245.958,98.238 234.266,99.688 231.866,101.72C228.079,104.929 223.611,111.618 221.983,116.014C218.237,126.128 217.423,138.281 220.842,148.858C221.902,152.137 225.634,158.556 228.065,161.022C229.471,162.449 234.49,167.027 235.668,167.865C239.275,170.431 241.837,170.106 245.931,169.385C251.401,168.423 257.885,167.29 261.897,162.923C264.894,159.66 266.252,156.974 267.219,152.659C269.884,140.775 272.304,129.84 268.36,118.066C265.633,109.928 260.499,105.053 253.724,100.649C252.135,99.616 248.659,98.708 246.312,98.299Z" style="fill:rgb(245,191,173);stroke:rgb(248,213,201);stroke-width:1px;"/>
    <path d="M277.132,109.812C283.595,116.968 282.052,138.218 282.769,146.101C283.373,152.742 282.727,159.307 284.355,165.693C285.514,170.238 285.153,170.464 285.115,175.196C285.107,176.21 285.656,177.38 285.115,178.237C283.53,180.751 273.831,182.799 271.05,182.799" style="fill:rgb(169,117,73);stroke:rgb(155,110,71);stroke-width:1px;"/>
    <path d="M217.071,103.73C217.071,108.695 215.818,109.685 213.65,115.345C211.829,120.098 210.959,127.033 210.608,133.001C210.349,137.411 209.649,141.988 209.468,146.306C209.072,155.745 207.056,166.218 208.708,175.576C209.333,179.122 215.181,177.378 217.245,176.939C218.008,176.777 220.112,176.124 220.112,174.816" style="fill:rgb(169,117,73);stroke:rgb(155,110,71);stroke-width:1px;"/>
    <g transform="matrix(1,0,0,1.02251,0,-3.84103)">
        <path d="M201.695,255.117C201.695,245.959 200.578,236.835 200.165,227.686C200.068,225.534 200.809,223.279 200.165,221.224C199.673,219.652 194.89,230.119 193.779,231.336C190.169,235.288 190.448,235.982 185.416,238.558C178.664,242.015 162.596,230.795 159.947,226.242C155.451,218.515 165.578,209.398 168.386,204.346C178.095,186.873 201.451,171.882 223.43,170.665C223.43,170.665 234.109,195.574 245.337,194.601C253.322,193.908 254.755,191.161 260.836,186.707C263.314,184.892 265.169,178.143 265.169,174.087C265.169,174.087 286.93,176.887 291.815,178.741C307.797,184.806 310.271,190.276 313.938,199.907C315.36,203.642 324.03,224.586 320.64,227.708C319.578,228.687 317.846,228.444 316.459,228.849C311.763,230.218 295.079,235.302 293.946,234.263C289.514,230.196 296.343,216.838 288.025,218.866C285.717,219.429 283.798,222.733 283.2,224.749C279.918,235.826 281.798,239.585 281.798,252.535L201.695,255.117Z" style="fill:rgb(155,102,142);stroke:rgb(155,102,142);stroke-width:0.99px;"/>
    </g>
    <g transform="matrix(1,0,0,1,32.6682,-14.8492)">
        <path d="M162.894,317.326C154.011,317.326 146.069,323.089 139.756,328.622C130.344,336.871 121.213,345.907 117.418,358.161C115.593,364.053 112.675,374.192 118.346,379.507C128.454,388.979 142.889,389.277 155.493,392.41C159.578,393.425 191.38,397.379 205.585,398.068C207.465,398.159 209.494,398.108 211.154,398.996C218.028,402.676 207.48,410.143 214.2,413.928C216.706,415.34 225.072,416.449 227.859,415.701C229.537,415.251 231.885,411.025 232.517,409.755C236.256,402.238 241.597,393.544 239.597,384.596C238.702,380.588 235.283,377.351 235.283,373.01L238.068,373.01C238.068,370.958 239.41,367.638 238.068,365.585C236.95,363.876 233.199,363.382 231.507,363.375C225.253,363.352 218.982,364.273 212.749,363.759C205.204,363.136 169.397,365.407 163.406,361.244C159.055,358.22 171.246,347.682 171.246,342.384L162.894,317.326Z" style="fill:rgb(197,197,197);stroke:rgb(179,179,179);stroke-width:1px;"/>
    </g>
    <g transform="matrix(1,0,0,1,32.6682,-14.8492)">
        <path d="M162.894,317.326C154.011,317.326 146.069,323.089 139.756,328.622C130.344,336.871 121.213,345.907 117.418,358.161C115.593,364.053 112.675,374.192 118.346,379.507C128.454,388.979 142.889,389.277 155.493,392.41C159.578,393.425 191.38,397.379 205.585,398.068C207.465,398.159 209.494,398.108 211.154,398.996C218.028,402.676 218.982,364.273 212.749,363.759C205.204,363.136 169.397,365.407 163.406,361.244C159.055,358.22 171.246,347.682 171.246,342.384L162.894,317.326Z" style="fill:rgb(51,53,81);stroke:rgb(51,53,81);stroke-width:1px;"/>
    </g>
    <g transform="matrix(1,0,0,1,-14.8492,-2.96983)">
        <path d="M286.327,302.476C299.438,302.476 336.683,296.564 348.508,302.476C364.527,310.486 371.908,330.121 358.717,343.312C353.706,348.323 313.91,353.78 309.529,358.161C307.241,360.449 299.527,357.954 297.464,360.017C295.117,362.365 276.36,359.776 272.406,363.729C264.943,371.193 265.91,382.914 265.91,396.212C265.91,398.875 267.604,411.223 265.91,412.917C264.705,414.122 252.765,419.11 250.133,413.845C244.469,402.518 236.202,386.425 234.622,371.413C234.448,369.764 234.355,366.514 241.78,363.729C247.207,361.016 269.622,351.53 269.622,348.88L286.327,302.476Z" style="fill:rgb(197,197,197);stroke:rgb(179,179,179);stroke-width:1px;"/>
    </g>
    <path d="M223.495,127.599C222.982,129.329 223.004,140.802 223.705,147.5C224.478,154.885 226.288,157.333 226.173,160.223C225.983,164.956 226.191,175.652 227.012,180.465C227.802,185.094 229.473,192.205 229.445,198.711C229.418,204.797 227.933,210.486 228.107,216.569C228.14,217.745 223.188,219.312 220.832,219.464C218.538,219.612 217.011,216.918 216.575,215.206C215.036,209.176 218.057,204.506 216.368,198.517C215.814,196.553 216.149,189.061 216.283,183.445C216.411,178.073 212.827,168.866 213.23,163.508C213.573,158.935 211.373,149.37 211.668,139.814C212.039,127.805 213.912,115.615 214.131,113.559C214.548,109.641 216.137,105.824 217.769,102.238C225.465,85.328 244.17,77.892 260.936,86.806C265.18,89.063 268.825,92.38 272.231,95.773C285.86,109.351 278.325,139 275.938,152.839C273.658,166.063 277.608,177.893 277.608,191.021L280.916,207.728C283.458,210.27 281.767,216.94 276.974,219.567C273.989,221.203 271.653,220.773 270.76,219.102C268.832,215.494 265.135,209.104 264.681,205.336C261.897,182.254 264.094,170.788 267.032,148.453C268.42,137.908 273.637,122.942 266.149,112.879C264.025,110.025 260.982,107.966 258.153,105.809C250.147,99.704 242.926,94.522 235.134,103.884C232.099,107.531 229.491,111.574 227.401,115.833C225.58,119.543 224.67,123.638 223.495,127.599Z" style="fill:rgb(169,117,73);stroke:rgb(155,110,71);stroke-width:1px;"/>
    <g transform="matrix(1,0,0,1,-14.8492,-2.96983)">
        <path d="M286.327,302.476C299.438,302.476 336.683,296.564 348.508,302.476C364.527,310.486 371.908,330.121 358.717,343.312C353.706,348.323 301.96,361.908 299.897,363.97C297.55,366.318 282.746,367.379 274.231,368.595C263.782,370.088 256.258,355.243 256.258,352.592L286.327,302.476Z" style="fill:rgb(51,53,81);stroke:rgb(51,53,81);stroke-width:1px;"/>
    </g>
    <g transform="matrix(0.917536,0,0,0.911699,18.7973,29.5463)">
        <path d="M176.1,250.979C177.345,250.251 184.998,245.844 194.267,245.689C219.836,245.261 246.288,248.796 271.877,245.782C281.252,244.678 296.63,237.698 305.287,246.524C316.189,257.639 311.53,275.575 311.969,288.844C312.271,297.962 317.798,305.952 317.974,315.036C318.141,323.685 313.243,332.759 306.855,338.409C292.27,351.308 280.505,351.618 260.813,351.386C247.313,351.226 231.756,348.765 218.235,347.957C198.884,346.8 176.787,349.877 158.281,341.559C156.17,340.61 156.072,336.523 156.053,334.877C155.957,326.71 155.802,318.539 156.053,310.376C156.542,294.515 156.874,277.107 163.87,262.347C167.674,254.321 168.735,255.286 176.1,250.979Z" style="fill:rgb(163,162,161);stroke:rgb(163,162,161);stroke-width:1.09px;"/>
    </g>
    <path d="M343.776,279.704C354.681,279.704 360.407,283.139 360.407,293.365" style="fill:none;stroke:rgb(173,170,169);stroke-width:1px;"/>
    <path d="M202.412,412.752C202.412,423.311 210.02,425.225 219.637,425.225" style="fill:none;stroke:rgb(173,170,169);stroke-width:1px;"/>
    <path d="M119.257,322.469C113.063,322.469 108.939,336.504 113.317,340.882C114.601,342.166 115.252,345.04 116.881,345.04" style="fill:none;stroke:rgb(173,170,169);stroke-width:1px;"/>
    <path d="M376.444,371.768C382.392,377.716 379.928,389.073 375.256,393.745C373.19,395.811 372.785,397.903 369.911,397.903" style="fill:none;stroke:rgb(173,170,169);stroke-width:1px;"/>
    <path d="M103.814,408.594C93.599,418.809 106.511,432.947 117.475,432.947" style="fill:none;stroke:rgb(173,170,169);stroke-width:1px;"/>
    <path d="M148.398,369.875C155.246,369.875 161.588,365.63 168.428,365.318C177.57,364.902 185.087,376.256 192.018,381.012C196.141,383.842 200.39,378.634 204.009,377.639C209.858,376.031 217.383,381.147 220.951,385.207C222.21,386.64 223.572,388.386 223.572,390.293" style="fill:rgb(230,230,230);stroke:rgb(173,170,169);stroke-width:1px;"/>
    <path d="M270.774,388.012C269.778,387.016 269.157,385.674 268.645,384.363C268.111,382.997 267.616,381.539 267.671,380.074C267.977,371.799 276.79,372.494 281.417,367.941C285.761,363.667 286.506,358.284 292.974,355.776C296.556,354.387 301.618,356.552 305.138,356.993C306.546,357.169 308.192,357.745 309.396,356.993C312.496,355.055 314.526,351.77 317.302,349.39C321.666,345.65 328.686,347.261 333.724,347.261" style="fill:rgb(230,230,230);stroke:rgb(173,170,169);stroke-width:1px;"/>
    <path d="M230.935,412.949C233.193,410.691 238.12,408.915 241.278,410.313C241.723,410.51 242.055,410.908 242.491,411.125C243.152,411.452 243.999,411.334 244.62,411.733C245.057,412.014 247.535,414.47 248.269,414.47" style="fill:rgb(230,230,230);stroke:rgb(173,170,169);stroke-width:1px;"/>
    <path d="M231.136,98.028C229.666,102.438 228.526,106.958 226.954,111.333C224.297,118.729 220.496,125.095 219.732,133.001C219.052,140.022 219.02,145.781 220.112,152.768C220.397,154.591 221.632,156.245 221.632,158.09" style="fill:none;stroke:rgb(153,109,71);stroke-width:0.5px;"/>
    <path d="M213.269,144.785C209.891,151.541 213.362,160.271 215.458,166.756C216.94,171.341 217.451,176.572 217.451,181.278" style="fill:none;stroke:rgb(153,109,71);stroke-width:0.5px;"/>
    <path d="M255.465,87.764C259.833,87.764 263.504,90.779 266.869,93.086C268.145,93.962 269.389,94.541 270.049,95.926C270.587,97.057 270.546,98.402 271.05,99.549C271.566,100.723 272.951,101.553 272.951,102.97" style="fill:none;stroke:rgb(153,109,71);stroke-width:0.5px;"/>
    <path d="M272.571,134.141C268.602,142.08 268.495,151.277 268.495,159.958C268.495,162.927 269.91,165.107 269.91,167.974" style="fill:none;stroke:rgb(153,109,71);stroke-width:0.5px;"/>
    <path d="M274.852,179.758C274.852,186.17 278.653,191.972 278.653,198.385" style="fill:none;stroke:rgb(153,109,71);stroke-width:0.5px;"/>
    <g transform="matrix(1,0,0,1,-1.45973,0.486577)">
        <path d="M282.454,130.72C282.454,138.577 282.835,146.431 282.835,154.289" style="fill:none;stroke:rgb(153,109,71);stroke-width:0.5px;"/>
    </g>
    <path d="M243.68,99.549C243.68,93.973 241.787,88.697 241.787,83.122" style="fill:none;stroke:rgb(248,213,201);stroke-width:0.5px;"/>
    <path d="M231.657,89.259C230.125,90.024 229.245,91.604 228.255,92.901C227.938,93.316 227.527,93.666 227.277,94.124C227.032,94.575 227.09,95.168 226.791,95.584C225.614,97.219 224.247,98.71 222.898,100.207C221.772,101.456 219.735,102.607 219.735,104.586" style="fill:none;stroke:rgb(155,110,71);stroke-width:0.5px;"/>
    <path d="M225.818,185.601C225.818,190.305 225.57,195.007 225.574,199.712C225.576,201.248 225.956,202.783 225.836,204.315C225.716,205.843 224.358,206.924 224.358,208.47" style="fill:none;stroke:rgb(155,110,71);stroke-width:0.5px;"/>
    <path d="M265.717,197.279C265.717,199.747 266.668,202.028 267.42,204.334C268.135,206.525 268.325,207.437 269.353,209.511C269.635,210.082 269.943,210.648 270.339,211.146C270.78,211.7 271.799,211.979 271.799,212.849" style="fill:none;stroke:rgb(155,110,71);stroke-width:0.5px;"/>
    <g transform="matrix(1.58726,0,0,1.58726,-136.67,-181.779)">
        <path d="M231.008,300.957C233.278,300.957 234.984,300.748 237.249,301.058C238.302,301.203 238.245,301.758 239.352,301.736C240.083,301.721 240.794,301.49 241.519,301.394C241.63,301.379 242.2,301.357 242.26,301.565C242.708,303.109 241.297,304.505 240.615,305.653C239.279,307.902 239.351,307.998 238.334,310.4C237.82,311.612 237.198,312.783 236.786,314.033C236.569,314.692 237.072,315.595 236.482,316.162C236.24,316.394 236.003,316.266 235.888,316.009C235.707,315.608 235.571,315.187 235.458,314.762C235.262,314.02 235.225,313.234 234.961,312.513C234.818,312.121 234.442,311.853 234.259,311.478C233.87,310.679 233.619,309.82 233.254,309.01C232.806,308.015 232.589,308.138 232.326,307.055C232.178,306.446 232.016,305.825 232.024,305.198C232.029,304.697 231.008,300.957 231.008,300.957Z" style="fill:rgb(221,166,119);stroke:rgb(155,110,71);stroke-width:0.32px;"/>
    </g>
    <g transform="matrix(1.81048,0,0,1.83126,-190.488,-255.69)">
        <path d="M231.315,300.361C231.22,300.55 231.163,300.774 231.19,300.984C231.368,302.37 232.545,301.262 233.308,301.731C233.744,302 233.949,302.645 234.447,302.763C235.43,302.996 235.782,301.65 236.691,301.734C237.437,301.804 237.391,302.612 237.982,302.848C239.056,303.277 239.191,301.977 240.119,301.911C240.927,301.853 241.002,302.787 241.747,302.812C242.221,302.827 242.164,302.483 242.526,302.354C242.599,302.328 243.671,302.223 243.849,301.913C244.324,301.083 242.449,300.767 242.637,300.122C243.304,297.838 241.188,295.097 238.963,294.62C238.495,294.519 236.609,293.961 234.912,294.869C233.44,295.657 231.789,296.684 232.311,299.115C232.387,299.468 231.976,300.237 231.439,300.237" style="fill:rgb(139,246,161);stroke:rgb(82,226,112);stroke-width:0.27px;"/>
    </g>
    <g transform="matrix(1.58726,0,0,1.58726,-136.67,-181.779)">
        <path d="M234.227,295.692L234.227,296.091" style="fill:none;stroke:rgb(155,110,71);stroke-width:0.32px;"/>
    </g>
    <g transform="matrix(1.58726,0,0,1.58726,-136.67,-181.779)">
        <path d="M237.914,297.187C238.045,297.319 238.013,297.408 238.013,297.586" style="fill:none;stroke:rgb(155,110,71);stroke-width:0.32px;"/>
    </g>
    <g transform="matrix(1.58726,0,0,1.58726,-136.67,-181.779)">
        <path d="M241.102,298.782C241.158,298.893 241.325,299.18 241.401,299.18" style="fill:none;stroke:rgb(155,110,71);stroke-width:0.32px;"/>
    </g>
    <g transform="matrix(1.58726,0,0,1.58726,-136.67,-181.779)">
        <path d="M234.227,298.782C233.881,298.782 233.943,299.38 233.629,299.38" style="fill:none;stroke:rgb(155,110,71);stroke-width:0.32px;"/>
    </g>
    <g transform="matrix(1.58726,0,0,1.58726,-136.67,-181.779)">
        <path d="M238.91,293.998C238.78,294.129 238.776,294.297 238.611,294.297" style="fill:none;stroke:rgb(155,110,71);stroke-width:0.32px;"/>
    </g>
    <g transform="matrix(1.58726,0,0,1.58726,-136.67,-181.779)">
        <path d="M232.732,294.397C232.563,294.735 232.433,294.744 232.433,295.095" style="fill:none;stroke:rgb(155,110,71);stroke-width:0.32px;"/>
    </g>
    <g transform="matrix(1.58726,0,0,1.58726,-136.67,-181.779)">
        <path d="M241.601,301.871C241.734,301.871 241.7,301.871 241.7,301.97" style="fill:none;stroke:rgb(155,110,71);stroke-width:0.32px;"/>
    </g>
    <g transform="matrix(1.58726,0,0,1.58726,-136.67,-181.779)">
        <path d="M230.938,300.775L230.938,300.974" style="fill:none;stroke:rgb(155,110,71);stroke-width:0.32px;"/>
    </g>
    <g transform="matrix(1.58726,0,0,1.58726,-136.67,-181.779)">
        <path d="M237.814,301.771C237.964,301.771 238.312,301.847 238.312,301.672" style="fill:none;stroke:rgb(155,110,71);stroke-width:0.32px;"/>
    </g>
    <g transform="matrix(1.58726,0,0,1.58726,-136.67,-181.779)">
        <path d="M241.401,295.394L241.401,295.692" style="fill:none;stroke:rgb(155,110,71);stroke-width:0.32px;"/>
    </g>
    <g transform="matrix(1.58726,0,0,1.58726,-136.67,-181.779)">
        <path d="M236.12,293.301L236.12,293.799" style="fill:none;stroke:rgb(155,110,71);stroke-width:0.32px;"/>
    </g>
    <g transform="matrix(1.58726,0,0,1.58726,-136.67,-181.779)">
        <path d="M235.821,300.177L235.821,300.476" style="fill:none;stroke:rgb(155,110,71);stroke-width:0.32px;"/>
    </g>
    <g transform="matrix(1.58726,0,0,1.58726,-136.67,-181.779)">
        <path d="M232.831,304.561C233.772,305.032 234.724,305.537 235.53,306.225C235.802,306.457 236.041,306.728 236.319,306.953C236.478,307.081 237.884,307.857 237.884,308.163" style="fill:none;stroke:rgb(155,110,71);stroke-width:0.16px;"/>
    </g>
    <g transform="matrix(1.58726,0,0,1.58726,-136.67,-181.779)">
        <path d="M233.33,307.551C233.998,307.885 234.464,308.505 235.016,308.983C235.173,309.118 235.368,309.206 235.522,309.345C235.717,309.521 236.737,310.399 237.085,310.399" style="fill:none;stroke:rgb(155,110,71);stroke-width:0.16px;"/>
    </g>
    <g transform="matrix(1.58726,0,0,1.58726,-136.67,-181.779)">
        <path d="M234.645,303.898C235.137,303.898 237.28,305.006 237.586,305.138C237.698,305.187 238.029,305.37 238.113,305.458C238.26,305.613 238.418,306.056 238.711,306.056" style="fill:none;stroke:rgb(155,110,71);stroke-width:0.16px;"/>
    </g>
    <g transform="matrix(1.58726,0,0,1.58726,-136.67,-181.779)">
        <path d="M239.209,303.764C238.562,303.764 238.133,304.611 237.914,305.06C237.854,305.183 237.527,305.646 237.431,305.784C237.186,306.134 236.96,306.859 236.817,307.252C236.342,308.566 235.721,309.905 235.721,311.338" style="fill:none;stroke:rgb(155,110,71);stroke-width:0.16px;"/>
    </g>
    <g transform="matrix(1.58726,0,0,1.58726,-136.67,-181.779)">
        <path d="M235.976,303.388C235.976,303.909 235.373,305.441 235.167,305.882C234.906,306.441 234.636,307.529 234.537,307.809C234.31,308.454 234.227,309.062 234.227,309.743" style="fill:none;stroke:rgb(155,110,71);stroke-width:0.16px;"/>
    </g>
</svg>
